<!-- by TradingView --><svg width="56" height="56" xmlns="http://www.w3.org/2000/svg"><path fill="#F0F3FA" d="M0 0h56v56H0z"/><path d="M27 16h1.894c.203 0 .369-.243.369-.47 0-.225-.166-.53-.37-.53H27v1zm0 2h1.948c.233 0 .42-.28.42-.539 0-.258-.187-.461-.42-.461H27v1zm3.015-1.578c.25.271.405.65.405 1.07 0 .822-.6 1.507-1.341 1.508h-3.083v-5h3.032c.712.001 1.288.71 1.288 1.5 0 .352-.113.673-.301.922zM16.004 27h1.894c.204 0 .37-.243.37-.47 0-.225-.166-.53-.37-.53h-1.894v1zm0 2h1.949c.232 0 .42-.28.42-.539 0-.258-.188-.461-.42-.461h-1.949v1zm3.015-1.578c.25.271.406.65.406 1.07 0 .822-.601 1.507-1.342 1.508H15v-5h3.032c.712.001 1.288.71 1.288 1.5 0 .352-.113.673-.301.922zM30.682 24h-1.131l-.429-1H26.87l-.509 1H25.23l2.254-4.66h1.026L30.682 24zm-2.684-3.528L27.258 22h1.48l-.74-1.528zM25.452 30.005h-1.131l-.429-1H21.64l-.509 1H20L22.243 25h1.026l2.183 5.005zm-2.695-3.867l-.73 1.867h1.482l-.752-1.867zM25.226 25h1.268l1.503 2.279L29.501 25h1.268l-2.244 3.258v1.747H27.47v-1.747L25.226 25zM36 25v1h-3v1h3v1h-3v1h3v1h-4.005v-5H36zM30.019 31v1h-3v1h3v1h-3v1h3v1h-4.005v-5h4.005zM38.872 28H38v2h-.972v-5h2.691c.755.003 1.367.715 1.367 1.593 0 .724-.413 1.215-.984 1.407l1.299 2h-1.265l-1.264-2zm.74-2H38v1h1.612c.231-.002.418-.14.418-.408 0-.27-.187-.59-.418-.592zM27.892 39.995h-.872v2h-.973v-5h2.692c.754.003 1.366.715 1.366 1.593 0 .724-.413 1.215-.983 1.407l1.299 2h-1.265l-1.264-2zm.74-2H27.02v1h1.611c.232-.002.419-.14.419-.408 0-.27-.187-.59-.419-.592z" fill="#00354F"/><path d="M44.923 26.947C44.379 18.049 36.99 11 27.956 11c-9.035 0-16.422 7.049-16.966 15.947a16.909 16.909 0 003.28 9.03c3.096 4.196 8.073 6.917 13.687 6.917-7.859 0-14.314-6.118-14.856-13.84a14.652 14.652 0 010-2.107c.541-7.723 6.997-13.84 14.855-13.84 5.615 0 10.593 2.722 13.688 6.919a16.91 16.91 0 013.279 9.028 17.087 17.087 0 000-2.107z" fill="#56D400"/><path d="M10.99 29.053C11.534 37.951 18.922 45 27.956 45c9.036 0 16.423-7.049 16.967-15.947a16.909 16.909 0 00-3.28-9.03c-3.096-4.195-8.073-6.917-13.687-6.917 7.858 0 14.314 6.118 14.857 13.84a15.182 15.182 0 010 2.107c-.543 7.723-6.998 13.84-14.857 13.84-5.614 0-10.592-2.722-13.688-6.919a16.91 16.91 0 01-3.278-9.027c-.021.348-.034.7-.034 1.053 0 .354.013.705.034 1.053z" fill="#00BDFF"/></svg>