<!-- by TradingView --><svg width="56" height="56" xmlns="http://www.w3.org/2000/svg"><path fill="url(#paint0_linear)" d="M0 0h56v56H0z"/><path d="M28 12c-8.837 0-16.001 7.163-16.001 16 0 8.836 7.164 16 16 16 8.837 0 16-7.164 16-16 0-8.837-7.163-16-16-16zm0 31.2c-8.396 0-15.2-6.806-15.2-15.2 0-8.395 6.804-15.2 15.2-15.2 8.394 0 15.199 6.805 15.199 15.2 0 8.394-6.805 15.2-15.2 15.2z" fill="#F8F8F8"/><path d="M43.314 28c0 8.457-6.858 15.314-15.315 15.314S12.685 36.457 12.685 28c0-8.458 6.857-15.315 15.314-15.315S43.314 19.543 43.314 28z" fill="#333"/><path d="M43.199 28c0 8.394-6.805 15.2-15.2 15.2S12.8 36.393 12.8 28c0-8.395 6.805-15.2 15.2-15.2S43.2 19.605 43.2 28z" fill="#131722"/><path d="M38.19 28c0 5.627-4.563 10.19-10.191 10.19-5.628 0-10.19-4.563-10.19-10.19 0-5.628 4.562-10.19 10.19-10.19 5.628 0 10.19 4.562 10.19 10.19z" fill="#DFDFDF"/><path d="M28.407 17.534l1.059-2.806v2.806h.804v-4.018H29.06l-1.099 2.877h.01l-1.098-2.877h-1.208v4.018h.804v-2.806l1.058 2.806h.88z"/><path d="M39.44 19.336l-1.373 2.003 2.157-1.062.586.702-3.396 1.705-.686-.83 1.316-1.985-.008-.01-2.189.937-.694-.825 2.29-3.032.585.702-1.434 1.931 2.22-.99.627.754z" fill="url(#paint2_linear)"/><path d="M20.883 18.568c-.324-.314-.823-.409-1.293-.118a.893.893 0 00.006-.6c-.202-.368-.273-.415-.438-.554-.54-.453-1.108-.066-1.513.417l-1.961 2.337 3.082 2.586 2.068-2.464c.473-.563.546-1.121.049-1.604zm-3.988 1.127l1.178-1.404c.137-.162.445-.155.643.011.218.183.219.442.072.617l-1.164 1.387-.729-.611zm3.25.233l-1.228 1.464-.769-.646 1.237-1.475c.14-.167.452-.215.662-.039.237.2.26.502.098.696z" fill="#333"/><path d="M28.416 17.379l1.058-2.806v2.806h.804V13.36H29.07l-1.099 2.876h.01l-1.098-2.876h-1.209v4.018h.804v-2.806l1.059 2.806h.879z" fill="url(#paint3_radial)"/><path d="M39.449 19.066l-1.373 2.003 2.157-1.061.585.702-3.395 1.705-.687-.831 1.317-1.985-.008-.01-2.19.938-.693-.826 2.29-3.031.584.702-1.433 1.93 2.218-.989.628.753z" fill="url(#paint4_radial)"/><path d="M20.739 18.489c-.323-.314-.823-.409-1.292-.118a.895.895 0 00.006-.6c-.203-.369-.273-.415-.44-.554-.54-.453-1.107-.067-1.512.417l-1.961 2.337 3.082 2.586 2.068-2.464c.472-.563.546-1.121.049-1.604zm-3.988 1.127l1.178-1.403c.136-.163.445-.157.643.01.218.183.219.442.072.617l-1.164 1.387-.729-.611zm3.25.233l-1.228 1.463-.77-.646 1.238-1.475c.14-.166.451-.214.661-.038.239.2.262.502.1.696z" fill="url(#paint5_radial)"/><path d="M18.431 28c0-5.285 4.284-9.569 9.568-9.569s9.569 4.284 9.569 9.569c0 5.284-4.285 9.568-9.569 9.568-5.284 0-9.568-4.284-9.568-9.568z" fill="#F8F8F8"/><path d="M18.416 28h9.583v-9.583A9.583 9.583 0 0018.416 28zM27.999 28v9.583c5.293 0 9.583-4.291 9.583-9.583h-9.583z" fill="#39C"/><path d="M37.661 27.83H28.17v-9.493h-.34v9.492h-9.492v.34h9.492v9.493h.34V28.17h9.492v-.34z" fill="#131722"/><defs><radialGradient id="paint3_radial" cx="0" cy="0" r="1" gradientUnits="userSpaceOnUse" gradientTransform="translate(7.717 10.743) scale(54.6208)"><stop offset=".31" stop-color="#FDFDFD"/><stop offset=".451" stop-color="#F6F6F6"/></radialGradient><radialGradient id="paint4_radial" cx="0" cy="0" r="1" gradientUnits="userSpaceOnUse" gradientTransform="translate(7.715 10.743) scale(54.6255)"><stop offset=".451" stop-color="#F6F6F6"/><stop offset=".557" stop-color="#E9E9E9"/><stop offset=".646" stop-color="#D7D7D7"/></radialGradient><radialGradient id="paint5_radial" cx="0" cy="0" r="1" gradientUnits="userSpaceOnUse" gradientTransform="translate(7.712 10.727) scale(54.6673)"><stop stop-color="#fff"/><stop offset=".31" stop-color="#FDFDFD"/></radialGradient><linearGradient id="paint0_linear" x1="10.418" y1="9.712" x2="68.147" y2="76.017" gradientUnits="userSpaceOnUse"><stop stop-color="#1A1E21"/><stop offset="1" stop-color="#06060A"/></linearGradient><linearGradient id="paint2_linear" x1="36.205" y1="17.936" x2="42.139" y2="24.647" gradientUnits="userSpaceOnUse"><stop stop-color="#1A1E21"/><stop offset="1" stop-color="#06060A"/></linearGradient></defs></svg>