<!-- by TradingView --><svg width="56" height="56" viewBox="0 0 56 56" xmlns="http://www.w3.org/2000/svg"><path fill="#125B53" d="M0 0h56v56H0z"/><path d="M28.32 11c1.88 0 3.07-.02 3.85.73 2.35 2.24 8.38 8.12 9.35 9.1.68.69.65 1.74-.18 2.54-.64.61-3.8 3.7-4.07 3.97-.34.35-.9.68-.28 1.34 1.42 1.37 2.83 2.75 4.22 4.14.83.84.62 2.21-.06 2.87-.93.9-6.5 6.36-8.25 7.96-.79.72-1.35 1.35-3.14 1.35h-8.52L31.7 34.86c.4-.39.55-.7.05-1.2-.44-.42-3.62-3.55-4.2-4.1-.9-.9-1.3-1.7-.18-2.76 1.03-.97 3.13-3.04 4.14-4.02.35-.34.78-.75.19-1.36L21.09 11h7.23Zm-8.36 0L26 16.94v22.4L20.15 45c-1.83 0-2.15-.72-2.15-1.8V12.69C18 11.5 19 11 19.96 11Z" fill="#fff"/></svg>