<!-- by TradingView --><svg xmlns="http://www.w3.org/2000/svg" width="56" height="56" viewBox="0 0 56 56"><path fill="#F0F3FA" d="M0 0h56v56H0z"/><path d="M7.72 22.8c-.6-.27-.97-.44-1.1-.53-.17-.1-.25-.24-.25-.4 0-.44.4-.66 1.2-.66.57 0 1.2.13 1.86.4v-1.35c-.9-.17-1.58-.26-2.05-.26-.86 0-1.55.18-2.09.55-.54.36-.8.9-.8 1.6 0 2.07 2.24 1.5 3.32 2.51.75.66-.52.94-1.05.94-.61 0-1.33-.12-2.13-.37v1.51c.73.17 1.47.26 2.22.26 1.4 0 3.13-.2 3.13-1.88 0-.54-.17-.97-.51-1.31a6.37 6.37 0 0 0-1.75-1zM11 27h2v-7h-2v7zm6-3h2.5v-.99H17V21h3v-1h-5v7h5v-1h-3v-2zm8.86.66L24.06 20H21.5v7H23v-4.8l1.93 4.8h1.24L28 22.2V27h2v-7h-2.3l-1.84 4.66zM34 24h2.5v-1H34v-2h3v-1h-5v7h5v-1h-3v-2zm9.3.88L40.84 20H38.5v7H40v-4.6l2.46 4.6H45v-7h-1.7v4.88zm5.92-2.08c-.6-.27-.97-.44-1.1-.53-.17-.1-.25-.24-.25-.4 0-.44.4-.66 1.2-.66.57 0 1.27.13 1.93.4v-1.35a12.4 12.4 0 0 0-2.12-.26c-.86 0-1.56.18-2.09.55-.54.36-.8.9-.8 1.6 0 1.57 1.26 1.5 2.39 1.96.53.21.85.38.98.5.75.66-.58 1.1-1.1 1.1-.62 0-1.46-.13-2.26-.38v1.4c.73.17 1.6.27 2.35.27 1.4 0 3.13-.58 3.13-2.26 0-1.03-1.5-1.6-2.26-1.94z" fill="#099"/><path d="M10.82 29.06a35.07 35.07 0 0 0-3.8 0c-.54.02-1.05.25-1.43.63-.38.38-.59.89-.59 1.41v2.8c0 .52.21 1.03.59 1.4.38.39.89.62 1.44.64a35.07 35.07 0 0 0 3.8 0c.99-.05 2.17-.97 2.17-2.04v-.16h-1v.16c0 .65-.63 1.07-1.21 1.1H7.06c-.3-.02-.6-.09-.8-.3-.22-.22-.26-.4-.26-.7v-3c0-.3.04-.48.25-.7.3-.39 1.85-.3 2.67-.3.83 0 2.3-.09 2.68.3.21.22.4.5.4.8v.9H8v1h5v-1.9c0-.52-.36-1.03-.74-1.4-.38-.39-.9-.62-1.44-.64zm8.24 0a19.26 19.26 0 0 0-3.08 0A2.17 2.17 0 0 0 14 31.1V36h1v-4.9c0-.3.08-.58.29-.8.21-.21.5-.28.8-.3h2.85c.3.02.6.09.8.3.22.22.26.5.26.8V36h1v-4.9c0-.51-.2-1-.57-1.38a2.17 2.17 0 0 0-1.37-.65zM28 29l-3.81.06c-1 .05-2.19.97-2.19 2.04v2.8c0 1.07 1 2.05 2 2.1h3.98a2.24 2.24 0 0 0 1.44-.7c.38-.37.59-.88.59-1.4v-.16H29v.16c0 .68-.37 1.06-1.05 1.1h-3.73c-.3-.02-.6-.09-.8-.3-.22-.22-.42-.5-.42-.8v-2.8c0-.3.2-.58.41-.8.21-.21.5-.28.81-.3h3.73c.3.02.6.09.8.3.22.22.25.5.25.8v.95h-3.7V33H30v-1.9c0-.52-.2-1.03-.58-1.4A2.2 2.2 0 0 0 28 29zm3 2.1V36h1v-4.9c0-.62.46-1.1 1.1-1.1H35v-1h-1.94c-1 0-2.06.9-2.06 2.1zM41.97 29h-4c-.54.03-1.06.31-1.44.7-.37.37-.53.88-.53 1.4v2.8c0 .52.16 1.03.53 1.4.38.39.9.67 1.44.7h3.8a2.24 2.24 0 0 0 1.43-.7c.38-.37.8-.88.8-1.4V32h-5v1h4v.9c0 .3-.24.58-.46.8-.21.21-.5.28-.8.3H38c-.31-.02-.6-.09-.81-.3-.22-.22-.2-.5-.2-.8v-2.8c0-.3-.02-.58.2-.8.2-.21.5-.28.8-.3h3.94c.3.02.6.09.8.3.22.22.26.5.26.8v.16h1v-.16c0-.52-.21-1.03-.59-1.4a2.24 2.24 0 0 0-1.44-.7zM52 29h-1.15l-3.4 4.04c-.28.35-.45.78-.45 1.22V36h1v-1.74c0-.25.02-.5.18-.7L52 29zm-6.94 0H43.9l3.17 3.78.62-.7L45.06 29z" fill="#641E8C"/></svg>