<!-- by TradingView --><svg width="56" height="56" xmlns="http://www.w3.org/2000/svg"><path fill="#0054A4" stroke="#fff" stroke-width=".019" d="M0 0h56v56H0z"/><circle cx="28" cy="28" r="28" fill="#0054A4"/><path d="M7.664 33c-.96 0-1.738.499-2.113.853 0 0-.914.822-1.532 1.106-.027.014-.027.041.011.041h5.59c1.106 0 1.625-.34 2.281-.873 0 0 .955-.806 1.61-1.066.066-.023.05-.061 0-.061H7.664zm9.604 0c-.96 0-1.737.499-2.113.853 0 0-.913.822-1.531 1.106-.028.014-.027.041.01.041h5.602c1.105 0 1.625-.34 2.281-.873 0 0 .944-.806 1.599-1.066.066-.023.061-.061.01-.061h-5.858zm9.616 0c-.96 0-1.738.499-2.113.853 0 0-.914.822-1.532 1.106-.027.014-.026.041.011.041h5.602c1.105 0 1.613-.34 2.27-.873 0 0 .955-.806 1.61-1.066.066-.023.06-.061.01-.061h-5.858zm9.604 0c-.96 0-1.726.499-2.102.853 0 0-.924.822-1.543 1.106-.027.014-.026.041.011.041h5.602c1.105 0 1.625-.34 2.28-.873 0 0 .956-.806 1.61-1.066.067-.023.05-.061 0-.061h-5.858zm9.615 0c-.96 0-1.737.499-2.113.853 0 0-.914.822-1.532 1.106-.027.014-.026.041.011.041h5.602c1.105 0 1.625-.34 2.281-.873 0 0 .945-.806 1.599-1.066.066-.023.062-.061.01-.061h-5.858zM27.224 22c-2.073 0-4.094.632-4.094 2.748 0 3.664 6.225 1.728 6.225 3.97 0 .73-1.104 1.025-1.995 1.025-1.602 0-2.706-.245-4.105-1.106v1.839c1.043.353 2.462.524 4.003.524 2.15 0 4.161-.57 4.161-2.736 0-3.826-6.225-2.107-6.225-3.982 0-.755.999-1.013 1.871-1.013 1.468 0 3.053.441 3.924 1.269v-1.956c-1.127-.365-2.623-.582-3.765-.582zm10.999 0C34.484 22 32 23.868 32 26.68c0 2.581 2.28 4.32 5.679 4.32 1.1 0 2.173-.16 3.321-.443V28.38c-.812.88-1.867 1.234-2.902 1.234-2.007 0-3.38-1.284-3.38-3.132 0-1.823 1.424-3.155 3.414-3.155 1.084 0 1.953.404 2.653 1.106v-2.177C40.058 22 39.145 22 38.223 22zm8.72 0c-3.222 0-5.5 1.927-5.5 4.61 0 2.632 2.046 4.39 5.092 4.39C49.77 31 52 29.132 52 26.436 52 23.791 49.974 22 46.943 22zM4 22v2.352c.7-.558 2.165-.768 3.765-.78v5.623c0 .818-.07 1.377-.409 1.805h3.164c-.355-.428-.408-.987-.408-1.805v-5.67c1.386.012 3.041.269 3.742.827V22H4zm10.704 0c.332.428.296.963.296 1.781v5.414c0 .818.041 1.39-.273 1.805h7.643v-2.363c-1.049.766-3.044.769-3.855.756h-1.112v-2.34h.817c.553 0 1.551.067 2.132.245V25.55c-.572.19-1.58.245-2.132.245h-.817v-2.223h1.112c.992 0 2.837.21 3.485.768V22h-7.296zm32.024 1.292c1.687 0 2.8 1.434 2.8 3.202 0 1.769-1.113 3.202-2.8 3.202-1.715 0-2.813-1.433-2.813-3.202 0-1.768 1.098-3.202 2.813-3.202z" fill="#fff" stroke="#fff" stroke-width=".019"/></svg>