<svg width="120" height="40" viewBox="0 0 120 40" fill="none" xmlns="http://www.w3.org/2000/svg">
<path d="M14.96 0C12.001 1.17199e-07 9.10849 0.877495 6.64824 2.52151C4.18799 4.16552 2.27053 6.5022 1.13837 9.23603C0.0062028 11.9699 -0.289809 14.978 0.287767 17.8801C0.865343 20.7822 2.29056 23.4478 4.38318 25.5398C6.47579 27.6318 9.1418 29.0563 12.044 29.6331C14.9463 30.2098 17.9544 29.913 20.6879 28.78C23.4214 27.6471 25.7575 25.729 27.4008 23.2683C29.0442 20.8076 29.9208 17.9148 29.92 14.9558C29.9189 10.9889 28.3423 7.18483 25.5368 4.38019C22.7314 1.57556 18.9269 -1.5712e-07 14.96 0V0ZM12.8547 21.3221L11.7347 24.5895C9.71152 23.8976 7.95524 22.5904 6.71172 20.8509C5.46819 19.1114 4.79964 17.0267 4.79964 14.8884C4.79964 12.7502 5.46819 10.6654 6.71172 8.92591C7.95524 7.18643 9.71152 5.87927 11.7347 5.18737L12.8337 8.45895C11.4951 8.91989 10.3338 9.78714 9.51167 10.9397C8.68957 12.0923 8.24771 13.4727 8.24771 14.8884C8.24771 16.3041 8.68957 17.6846 9.51167 18.8371C10.3338 19.9897 11.4951 20.857 12.8337 21.3179L12.8547 21.3221ZM17.979 24.6526L16.9474 21.36C18.3098 20.9204 19.4986 20.062 20.3446 18.9072C21.1907 17.7524 21.6506 16.36 21.659 14.9285C21.6674 13.4969 21.2238 12.0993 20.3914 10.9346C19.559 9.76994 18.3803 8.89768 17.0232 8.44211L18.1053 5.16632C20.1586 5.84776 21.9437 7.16155 23.2047 8.91951C24.4657 10.6775 25.1381 12.7894 25.1255 14.9529C25.1129 17.1163 24.4159 19.2203 23.1345 20.9634C21.853 22.7065 20.0528 23.9994 17.9916 24.6568" fill="#3AB6EC"/>
<path d="M38.2866 39.9131H40.6593C42.0441 39.9131 42.935 39.2837 42.935 37.9763V37.9376C42.935 37.0369 42.5574 36.5237 41.5502 36.2816C42.3443 36.0104 42.5961 35.4487 42.5961 34.8192V34.7805C42.5961 33.415 41.6567 32.9889 40.3687 32.9889H38.2866V39.9131ZM39.1098 36.0104V33.6475H40.3494C41.3178 33.6475 41.7729 33.967 41.7729 34.7515V34.7902C41.7729 35.6424 41.3856 36.0104 40.3687 36.0104H39.1098ZM39.1098 39.2546V36.6689H40.5237C41.6374 36.6689 42.1119 37.0757 42.1119 37.9279V37.9666C42.1119 38.8091 41.647 39.2546 40.6399 39.2546H39.1098Z" fill="black"/>
<path d="M44.2044 39.9131H45.0081V37.1338C45.0081 35.8845 45.657 35.5649 46.6738 35.5165V34.7611C45.7635 34.7902 45.3277 35.1872 45.0081 35.7586V34.8483H44.2044V39.9131Z" fill="black"/>
<path d="M49.7566 40.0003C51.1995 40.0003 52.2551 38.9447 52.2551 37.4146V37.3371C52.2551 35.8167 51.1995 34.7611 49.7663 34.7611C48.333 34.7611 47.2774 35.8264 47.2774 37.3468V37.4243C47.2774 38.906 48.3136 40.0003 49.7566 40.0003ZM49.7663 39.3321C48.7397 39.3321 48.1103 38.5767 48.1103 37.4243V37.3468C48.1103 36.1847 48.7494 35.4294 49.7663 35.4294C50.7734 35.4294 51.4223 36.1847 51.4223 37.3565V37.4243C51.4223 38.567 50.7831 39.3321 49.7663 39.3321Z" fill="black"/>
<path d="M53.4513 39.9131H54.2551V37.2887L56.5018 39.9131H57.4799L55.1266 37.2016L57.2959 34.8483H56.3565L54.2551 37.1822V32.4272H53.4513V39.9131Z" fill="black"/>
<path d="M60.2795 40.0003C61.4223 40.0003 62.2648 39.4677 62.4391 38.4508H61.6353C61.5288 39.0416 61.0736 39.3321 60.2892 39.3321C59.253 39.3321 58.701 38.6929 58.6623 37.5405H62.4779V37.279C62.4779 35.4681 61.3739 34.7611 60.2021 34.7611C58.8075 34.7611 57.8294 35.8264 57.8294 37.3565V37.434C57.8294 38.9931 58.8463 40.0003 60.2795 40.0003ZM58.6913 36.8917C58.8269 35.991 59.3789 35.4294 60.2021 35.4294C61.0349 35.4294 61.5772 35.8458 61.6547 36.8917H58.6913Z" fill="black"/>
<path d="M63.6628 39.9131H64.4666V37.1338C64.4666 35.8845 65.1154 35.5649 66.1323 35.5165V34.7611C65.222 34.7902 64.7862 35.1872 64.4666 35.7586V34.8483H63.6628V39.9131Z" fill="black"/>
<path d="M69.828 39.9131H73.8373V39.2256H70.6706V32.9889H69.828V39.9131Z" fill="black"/>
<path d="M75.6103 39.9131H76.4528V33.6765H78.4671V32.9889H73.5959V33.6765H75.6103V39.9131Z" fill="black"/>
<path d="M79.5667 39.9131H81.3777C83.7987 39.9131 84.9027 38.3927 84.9027 36.4752V36.3881C84.9027 34.4609 83.7793 32.9889 81.397 32.9889H79.5667V39.9131ZM80.4092 39.2256V33.6668H81.3486C83.2564 33.6668 84.0311 34.7902 84.0311 36.3881V36.4656C84.0311 38.1603 83.1402 39.2256 81.3583 39.2256H80.4092Z" fill="black"/>
<path d="M44.2144 21.8458C48.2803 21.8458 50.9596 18.9041 50.9596 14.9881V14.8382C50.9596 10.9035 48.2053 8.07422 44.2144 8.07422C40.2422 8.07422 37.4316 10.9784 37.4316 14.8944V15.0443C37.4316 18.9041 40.111 21.8458 44.2144 21.8458ZM44.2519 19.841C41.8161 19.841 40.0361 17.9485 40.0361 15.0256V14.8757C40.0361 11.9902 41.5912 10.0603 44.2144 10.0603C46.8375 10.0603 48.374 12.1026 48.374 14.857V15.0069C48.374 17.9111 46.7813 19.841 44.2519 19.841Z" fill="black"/>
<path d="M55.4786 21.6584H57.9893V10.229H61.718V8.26159H51.75V10.229H55.4786V21.6584Z" fill="black"/>
<path d="M63.7229 21.6584H66.2149V15.4003L71.3676 21.6584H74.3093L68.4821 14.6509L74.0282 8.24285H71.3488L66.2149 14.3323V8.26159H63.7229V21.6584Z" fill="black"/>
<path d="M78.5659 14.4635V10.1915H80.5707C82.1634 10.1915 83.1189 10.7161 83.1189 12.2525V12.3275C83.1189 13.7515 82.2383 14.4635 80.5707 14.4635H78.5659ZM76.0739 21.6584H78.5659V16.2435H80.1585L83.6623 21.6584H86.3604L82.5943 15.8687C84.2619 15.4378 85.5735 14.3698 85.5735 12.2713V12.1963C85.5735 9.46075 83.5124 8.26159 80.5707 8.26159H76.0739V21.6584Z" fill="black"/>
<path d="M88.4266 21.6584H90.9373V8.26159H88.4266V21.6584Z" fill="black"/>
<path d="M96.7765 21.6584H99.2872V10.229H103.016V8.26159H93.0479V10.229H96.7765V21.6584Z" fill="black"/>
<path d="M105.096 21.6584H107.607V8.26159H105.096V21.6584Z" fill="black"/>
<path d="M110.766 21.6584H119.46V19.6911H113.258V15.7751H117.98V13.9014H113.258V10.229H119.142V8.26159H110.766V21.6584Z" fill="black"/>
<path fill-rule="evenodd" clip-rule="evenodd" d="M49.2331 20.0022C48.0209 21.2625 46.2897 22.0142 44.2143 22.0142C42.1207 22.0142 40.3803 21.2628 39.1634 20.0098C37.9472 18.7575 37.2632 17.0136 37.2632 15.0443V14.8944C37.2632 10.8875 40.147 7.90576 44.2143 7.90576C46.2509 7.90576 47.9815 8.62838 49.2033 9.86215C50.4248 11.0957 51.128 12.8306 51.128 14.8382V14.9881C51.128 16.9849 50.4445 18.7426 49.2331 20.0022ZM41.3561 18.4171C42.0723 19.2184 43.0799 19.6725 44.2518 19.6725C45.4703 19.6725 46.4525 19.2094 47.1328 18.4043C47.8155 17.5962 48.2055 16.4294 48.2055 15.0068V14.8569C48.2055 13.5096 47.8297 12.3516 47.1484 11.5335C46.4699 10.7188 45.4783 10.2287 44.2143 10.2287C42.9473 10.2287 41.9515 10.6931 41.2698 11.495C40.5854 12.3002 40.2044 13.4617 40.2044 14.8757V15.0256C40.2044 16.453 40.6387 17.6146 41.3561 18.4171ZM55.3101 21.8268V10.3973H51.5815V8.09313H61.8863V10.3973H58.1577V21.8268H55.3101ZM57.9893 21.6584H55.4785V10.2289H51.7499V8.26155H61.7179V10.2289H57.9893V21.6584ZM63.5545 21.8268V8.09313H66.3833V13.8712L71.2705 8.07439H74.3967L68.7029 14.653L74.6683 21.8268H71.288L66.3833 15.8698V21.8268H63.5545ZM66.2149 15.4003L71.3675 21.6584H74.3092L68.4821 14.6508L74.0282 8.24281H71.3488L66.2149 14.3323V8.26155H63.7229V21.6584H66.2149V15.4003ZM75.9054 21.8268V8.09313H80.5707C82.0605 8.09313 83.3514 8.39619 84.2742 9.06684C85.2053 9.74355 85.7418 10.7804 85.7418 12.1963V12.2712C85.7418 13.3586 85.4008 14.1921 84.8332 14.8093C84.3182 15.3692 83.6265 15.7408 82.8607 15.9694L86.6708 21.8268H83.5706L80.0668 16.4119H78.7343V21.8268H75.9054ZM80.1585 16.2435L83.6623 21.6584H86.3604L82.5943 15.8687C82.6515 15.8539 82.7084 15.8384 82.7648 15.822C84.3504 15.3632 85.5734 14.2977 85.5734 12.2712V12.1963C85.5734 9.46071 83.5124 8.26155 80.5707 8.26155H76.0738V21.6584H78.5658V16.2435H80.1585ZM78.7343 10.3599V14.295H80.5707C81.3843 14.295 81.9762 14.1208 82.3625 13.7999C82.7432 13.4837 82.9505 13.0031 82.9505 12.3274V12.2525C82.9505 11.5218 82.7255 11.0644 82.342 10.7813C81.9476 10.4902 81.3547 10.3599 80.5707 10.3599H78.7343ZM88.2581 21.8268V8.09313H91.1057V21.8268H88.2581ZM90.9373 21.6584H88.4265V8.26155H90.9373V21.6584ZM96.608 21.8268V10.3973H92.8794V8.09313H103.184V10.3973H99.4556V21.8268H96.608ZM99.2872 21.6584H96.7764V10.2289H93.0478V8.26155H103.016V10.2289H99.2872V21.6584ZM104.927 21.8268V8.09313H107.775V21.8268H104.927ZM107.606 21.6584H105.096V8.26155H107.606V21.6584ZM110.598 21.8268V8.09313H119.31V10.3973H113.427V13.7329H118.148V15.9434H113.427V19.5226H119.629V21.8268H110.598ZM119.46 19.691V21.6584H110.766V8.26155H119.142V10.2289H113.258V13.9013H117.98V15.775H113.258V19.691H119.46ZM50.9596 14.9881C50.9596 18.9041 48.2802 21.8458 44.2143 21.8458C40.111 21.8458 37.4316 18.9041 37.4316 15.0443V14.8944C37.4316 10.9784 40.2421 8.07418 44.2143 8.07418C48.2053 8.07418 50.9596 10.9034 50.9596 14.8382V14.9881ZM40.036 15.0256C40.036 17.9485 41.816 19.8409 44.2518 19.8409C46.7813 19.8409 48.3739 17.911 48.3739 15.0068V14.8569C48.3739 12.1026 46.8375 10.0603 44.2143 10.0603C41.5912 10.0603 40.036 11.9902 40.036 14.8757V15.0256ZM78.5658 14.4634H80.5707C82.2383 14.4634 83.1189 13.7514 83.1189 12.3274V12.2525C83.1189 10.7161 82.1633 10.1914 80.5707 10.1914H78.5658V14.4634Z" fill="black"/>
</svg>
