<svg width="135" height="45" viewBox="0 0 135 45" fill="none" xmlns="http://www.w3.org/2000/svg">
<path d="M16.831 0C13.5021 1.31849e-07 10.248 0.987182 7.48025 2.8367C4.71246 4.68621 2.55532 7.31498 1.28164 10.3905C0.00795471 13.4661 -0.325059 16.8503 0.324715 20.1151C0.974488 23.3799 2.57786 26.3788 4.93205 28.7323C7.28624 31.0858 10.2855 32.6883 13.5505 33.3372C16.8155 33.986 20.1996 33.6521 23.2748 32.3775C26.35 31.103 28.9782 28.9451 30.8269 26.1768C32.6757 23.4085 33.6619 20.1541 33.661 16.8253C33.6597 12.3625 31.886 8.08293 28.7299 4.92772C25.5738 1.7725 21.2938 -1.7676e-07 16.831 0V0ZM14.4626 23.9874L13.2026 27.6632C10.9264 26.8848 8.95063 25.4142 7.55166 23.4573C6.15269 21.5004 5.40058 19.155 5.40058 16.7495C5.40058 14.3439 6.15269 11.9986 7.55166 10.0417C8.95063 8.08473 10.9264 6.61417 13.2026 5.83579L14.4389 9.51632C12.933 10.0349 11.6265 11.0105 10.7016 12.3072C9.77675 13.6038 9.27965 15.1568 9.27965 16.7495C9.27965 18.3422 9.77675 19.8951 10.7016 21.1918C11.6265 22.4884 12.933 23.4641 14.4389 23.9826L14.4626 23.9874ZM20.2273 27.7342L19.0668 24.03C20.5995 23.5354 21.937 22.5698 22.8887 21.2706C23.8405 19.9714 24.3579 18.405 24.3674 16.7945C24.3768 15.1841 23.8778 13.6117 22.9413 12.3014C22.0049 10.9912 20.6788 10.0099 19.152 9.49737L20.3694 5.81211C22.6794 6.57874 24.6876 8.05675 26.1063 10.0344C27.5249 12.0122 28.2814 14.3881 28.2672 16.822C28.253 19.2558 27.4689 21.6228 26.0272 23.5838C24.5856 25.5448 22.5603 26.9993 20.2415 27.7389" fill="white"/>
<path d="M43.0732 44.902H45.7425C47.3004 44.902 48.3027 44.1939 48.3027 42.7231V42.6795C48.3027 41.6663 47.8778 41.0889 46.7448 40.8165C47.6381 40.5115 47.9214 39.8796 47.9214 39.1714V39.1278C47.9214 37.5917 46.8646 37.1123 45.4156 37.1123H43.0732V44.902ZM43.9993 40.5115V37.8531H45.3938C46.4833 37.8531 46.9953 38.2127 46.9953 39.0951V39.1387C46.9953 40.0975 46.5596 40.5115 45.4156 40.5115H43.9993ZM43.9993 44.1612V41.2523H45.5899C46.8428 41.2523 47.3767 41.7099 47.3767 42.6686V42.7122C47.3767 43.66 46.8537 44.1612 45.7207 44.1612H43.9993Z" fill="white"/>
<path d="M49.7307 44.902H50.635V41.7753C50.635 40.3698 51.3649 40.0103 52.5089 39.9558V39.106C51.4847 39.1387 50.9945 39.5854 50.635 40.2282V39.2041H49.7307V44.902Z" fill="white"/>
<path d="M55.977 45.0001C57.6003 45.0001 58.7878 43.8126 58.7878 42.0912V42.004C58.7878 40.2936 57.6003 39.106 55.9878 39.106C54.3754 39.106 53.1879 40.3045 53.1879 42.0149V42.1021C53.1879 43.769 54.3536 45.0001 55.977 45.0001ZM55.9878 44.2484C54.833 44.2484 54.1248 43.3986 54.1248 42.1021V42.0149C54.1248 40.7076 54.8439 39.8578 55.9878 39.8578C57.1209 39.8578 57.8508 40.7076 57.8508 42.0258V42.1021C57.8508 43.3877 57.1318 44.2484 55.9878 44.2484Z" fill="white"/>
<path d="M60.1335 44.902H61.0377V41.9496L63.5653 44.902H64.6657L62.0183 41.8515L64.4587 39.2041H63.4019L61.0377 41.8297V36.4804H60.1335V44.902Z" fill="white"/>
<path d="M67.8153 45.0001C69.1009 45.0001 70.0487 44.4009 70.2448 43.2569H69.3405C69.2207 43.9215 68.7086 44.2484 67.8262 44.2484C66.6604 44.2484 66.0394 43.5293 65.9959 42.2328H70.2884V41.9387C70.2884 39.9014 69.0464 39.106 67.7281 39.106C66.1593 39.106 65.0589 40.3045 65.0589 42.0258V42.113C65.0589 43.867 66.2029 45.0001 67.8153 45.0001ZM66.0285 41.5029C66.1811 40.4897 66.8021 39.8578 67.7281 39.8578C68.6651 39.8578 69.2752 40.3263 69.3623 41.5029H66.0285Z" fill="white"/>
<path d="M71.6215 44.902H72.5257V41.7753C72.5257 40.3698 73.2557 40.0103 74.3996 39.9558V39.106C73.3755 39.1387 72.8852 39.5854 72.5257 40.2282V39.2041H71.6215V44.902Z" fill="white"/>
<path d="M78.5573 44.902H83.0677V44.1285H79.5052V37.1123H78.5573V44.902Z" fill="white"/>
<path d="M85.0623 44.902H86.0102V37.8858H88.2763V37.1123H82.7962V37.8858H85.0623V44.902Z" fill="white"/>
<path d="M89.5133 44.902H91.5507C94.2743 44.902 95.5163 43.1916 95.5163 41.0344V40.9364C95.5163 38.7683 94.2525 37.1123 91.5724 37.1123H89.5133V44.902ZM90.4612 44.1285V37.8749H91.518C93.6642 37.8749 94.5358 39.1387 94.5358 40.9364V41.0235C94.5358 42.9301 93.5335 44.1285 91.5289 44.1285H90.4612Z" fill="white"/>
<path d="M49.742 24.5767C54.3162 24.5767 57.3304 21.2673 57.3304 16.8618V16.6932C57.3304 12.2666 54.2318 9.08368 49.742 9.08368C45.2733 9.08368 42.1115 12.3509 42.1115 16.7564V16.925C42.1115 21.2673 45.1257 24.5767 49.742 24.5767ZM49.7842 22.3213C47.0439 22.3213 45.0414 20.1923 45.0414 16.904V16.7353C45.0414 13.4892 46.791 11.318 49.742 11.318C52.6931 11.318 54.4216 13.6157 54.4216 16.7143V16.8829C54.4216 20.1501 52.6298 22.3213 49.7842 22.3213Z" fill="white"/>
<path d="M62.4143 24.3659H65.2388V11.5078H69.4336V9.29447H58.2196V11.5078H62.4143V24.3659Z" fill="white"/>
<path d="M71.6892 24.3659H74.4927V17.3255L80.2894 24.3659H83.5988L77.0432 16.4824L83.2826 9.27339H80.2683L74.4927 16.124V9.29447H71.6892V24.3659Z" fill="white"/>
<path d="M88.3875 16.2716V11.4656H90.6429C92.4346 11.4656 93.5097 12.0558 93.5097 13.7843V13.8686C93.5097 15.4706 92.519 16.2716 90.6429 16.2716H88.3875ZM85.584 24.3659H88.3875V18.2741H90.1792L94.121 24.3659H97.1563L92.9195 17.8525C94.7955 17.3677 96.271 16.1662 96.271 13.8054V13.721C96.271 10.6435 93.9523 9.29447 90.6429 9.29447H85.584V24.3659Z" fill="white"/>
<path d="M99.4808 24.3659H102.305V9.29447H99.4808V24.3659Z" fill="white"/>
<path d="M108.874 24.3659H111.699V11.5078H115.894V9.29447H104.68V11.5078H108.874V24.3659Z" fill="white"/>
<path d="M118.234 24.3659H121.058V9.29447H118.234V24.3659Z" fill="white"/>
<path d="M124.613 24.3659H134.394V22.1526H127.416V17.7471H132.728V15.6392H127.416V11.5078H134.035V9.29447H124.613V24.3659Z" fill="white"/>
<path fill-rule="evenodd" clip-rule="evenodd" d="M55.3882 22.5024C54.0245 23.9203 52.0769 24.766 49.7421 24.766C47.3868 24.766 45.4288 23.9207 44.0598 22.511C42.6916 21.1021 41.9221 19.1403 41.9221 16.9248V16.7562C41.9221 12.2485 45.1663 8.89398 49.7421 8.89398C52.0332 8.89398 53.9802 9.70692 55.3546 11.0949C56.7288 12.4827 57.52 14.4345 57.52 16.693V16.8616C57.52 19.108 56.751 21.0854 55.3882 22.5024ZM46.5266 20.7192C47.3323 21.6207 48.4659 22.1316 49.7843 22.1316C51.1551 22.1316 52.2601 21.6106 53.0253 20.7048C53.7934 19.7957 54.2322 18.4831 54.2322 16.8827V16.714C54.2322 15.1983 53.8094 13.8955 53.0429 12.9752C52.2796 12.0587 51.164 11.5073 49.7421 11.5073C48.3167 11.5073 47.1964 12.0297 46.4295 12.9319C45.6596 13.8377 45.231 15.1444 45.231 16.7351V16.9037C45.231 18.5096 45.7196 19.8164 46.5266 20.7192ZM62.2249 24.5552V11.697H58.0302V9.10477H69.6231V11.697H65.4284V24.5552H62.2249ZM65.2389 24.3657H62.4143V11.5075H58.2196V9.29425H69.4336V11.5075H65.2389V24.3657ZM71.4998 24.5552V9.10477H74.6822V15.6051L80.1803 9.08369H83.6972L77.2918 16.4846L84.0028 24.5552H80.2L74.6822 17.8535V24.5552H71.4998ZM74.4927 17.3253L80.2895 24.3657H83.5989L77.0433 16.4822L83.2827 9.27317H80.2684L74.4927 16.1238V9.29425H71.6892V24.3657H74.4927V17.3253ZM85.3946 24.5552V9.10477H90.643C92.3191 9.10477 93.7714 9.44571 94.8095 10.2002C95.857 10.9615 96.4606 12.128 96.4606 13.7208V13.8051C96.4606 15.0284 96.0768 15.9662 95.4383 16.6605C94.859 17.2904 94.0808 17.7084 93.2192 17.9656L97.5057 24.5552H94.018L90.0762 18.4634H88.577V24.5552H85.3946ZM90.1793 18.2739L94.121 24.3657H97.1564L92.9195 17.8523C92.984 17.8356 93.048 17.8181 93.1114 17.7998C94.8952 17.2836 96.2711 16.0849 96.2711 13.8051V13.7208C96.2711 10.6433 93.9524 9.29425 90.643 9.29425H85.5841V24.3657H88.3876V18.2739H90.1793ZM88.577 11.6549V16.0819H90.643C91.5583 16.0819 92.2242 15.8859 92.6588 15.5249C93.087 15.1692 93.3203 14.6285 93.3203 13.8684V13.7841C93.3203 12.962 93.0672 12.4474 92.6358 12.129C92.192 11.8015 91.5251 11.6549 90.643 11.6549H88.577ZM99.2914 24.5552V9.10477H102.495V24.5552H99.2914ZM102.305 24.3657H99.4809V9.29425H102.305V24.3657ZM108.685 24.5552V11.697H104.49V9.10477H116.083V11.697H111.889V24.5552H108.685ZM111.699 24.3657H108.874V11.5075H104.68V9.29425H115.894V11.5075H111.699V24.3657ZM118.044 24.5552V9.10477H121.248V24.5552H118.044ZM121.058 24.3657H118.234V9.29425H121.058V24.3657ZM124.424 24.5552V9.10477H134.225V11.697H127.606V15.4495H132.918V17.9364H127.606V21.9629H134.583V24.5552H124.424ZM134.394 22.1524V24.3657H124.613V9.29425H134.035V11.5075H127.417V15.639H132.728V17.7469H127.417V22.1524H134.394ZM57.3305 16.8616C57.3305 21.2671 54.3162 24.5765 49.7421 24.5765C45.1258 24.5765 42.1115 21.2671 42.1115 16.9248V16.7562C42.1115 12.3507 45.2734 9.08346 49.7421 9.08346C54.2319 9.08346 57.3305 12.2664 57.3305 16.693V16.8616ZM45.0415 16.9037C45.0415 20.1921 47.044 22.321 49.7843 22.321C52.6299 22.321 54.4216 20.1499 54.4216 16.8827V16.714C54.4216 13.6154 52.6932 11.3178 49.7421 11.3178C46.7911 11.3178 45.0415 13.489 45.0415 16.7351V16.9037ZM88.3876 16.2714H90.643C92.519 16.2714 93.5097 15.4704 93.5097 13.8684V13.7841C93.5097 12.0556 92.4347 11.4654 90.643 11.4654H88.3876V16.2714Z" fill="white"/>
</svg>
